<svg xmlns="http://www.w3.org/2000/svg" viewBox="0 0 107.97 85.767" version="1.0"><path stroke-linejoin="round" d="M78.37 57.14c8.55-2.05 14.01-5.19 14.01-8.69 0-.42-.25-.79-.4-1.19.91.23 1.81.47 2.81.47 5.57 0 10.09-3.78 10.09-8.44 0-4.65-4.52-8.44-10.09-8.44-.68 0-1.26.24-1.91.35.57-1.86.94-3.76.94-5.78 0-12.33-11.15-22.35-24.94-22.35h0c-9.762 0-18.144 5.07-22.247 12.38-1.639-.92-3.446-1.47-5.375-1.47-5.833 0-10.687 4.69-12.188 11.06-2.56-1.01-5.538-1.62-8.718-1.62-9.542 0-17.282 5.22-17.282 11.65 0 5.81 6.348 10.59 14.594 11.47-.369.63-.656 1.25-.656 1.91 0 2.86 3.64 5.47 9.622 7.46M78.26 57.17l.11-.03" stroke="#6798e9" stroke-linecap="round" stroke-miterlimit=".5" stroke-width="6.154" fill="none"/><path stroke-linejoin="round" d="M26.63 55.91c.042.01.085.02.127.04" stroke="#6798e9" stroke-linecap="round" stroke-miterlimit=".5" stroke-width="6.154" fill="none"/><path d="M31.252 44.211c.314-1.064 7.921 1.647 8.532.72s-4.963-6.77-4.09-7.444c.878-.682 5.44 5.985 6.48 5.593 1.036-.386-.042-8.394 1.065-8.427 1.112-.034.883 8.04 1.957 8.337 1.064.295 4.9-6.815 5.812-6.195.921.63-4.013 7.025-3.317 7.898.688.864 7.97-2.634 8.342-1.594.377 1.045-7.373 3.322-7.325 4.434.052 1.107 7.998 2.558 7.688 3.617-.31 1.069-7.922-1.646-8.533-.716-.606.921 4.968 6.767 4.095 7.445-.883.677-5.44-5.99-6.486-5.598-1.03.391.043 8.394-1.059 8.427-1.117.034-.883-8.04-1.957-8.336-1.064-.292-4.9 6.819-5.817 6.194s4.014-7.025 3.322-7.893c-.692-.864-7.975 2.634-8.347 1.594-.377-1.05 7.378-3.327 7.325-4.438-.047-1.103-7.998-2.554-7.687-3.618z" stroke="#a6a6a6" stroke-linecap="round" stroke-miterlimit=".5" stroke-width=".13409601000000002" fill="#9e9e9e"/><path d="M64.286 46.76c-8.251 7.27 1.437 13.47 5.124 3.49l2.83-9.26-7.954 5.77zM31.128 72.2c-8.251 7.27 1.436 13.47 5.12 3.49l2.832-9.26-7.952 5.77z" stroke="#6798e9" stroke-miterlimit="3.2" stroke-width="4" fill="#6798e9"/><path d="M47.15 69.201c.314-1.064 7.921 1.647 8.532.72s-4.963-6.77-4.09-7.444c.878-.682 5.44 5.985 6.48 5.593 1.036-.386-.042-8.394 1.065-8.427 1.112-.034.883 8.04 1.956 8.337 1.065.295 4.901-6.815 5.813-6.195.92.63-4.013 7.025-3.317 7.898.687.864 7.97-2.634 8.342-1.594.377 1.045-7.373 3.322-7.325 4.434.052 1.107 7.998 2.558 7.688 3.617-.31 1.069-7.922-1.646-8.533-.716-.606.921 4.968 6.767 4.095 7.445-.883.677-5.44-5.99-6.486-5.598-1.03.391.043 8.394-1.06 8.427-1.116.034-.882-8.04-1.956-8.336-1.064-.292-4.9 6.819-5.817 6.194s4.013-7.025 3.322-7.893c-.692-.864-7.975 2.634-8.347 1.594-.377-1.05 7.378-3.327 7.325-4.438-.047-1.103-7.998-2.554-7.688-3.618z" stroke="#a6a6a6" stroke-linecap="round" stroke-miterlimit=".5" stroke-width=".13409601000000002" fill="#9e9e9e"/></svg>