<svg xmlns="http://www.w3.org/2000/svg" viewBox="0 0 156.391 156.391" style="enable-background:new 0 0 156.391 156.391" xml:space="preserve"><path style="fill:#fdd633" d="m140.796 92.339 14.956-12.837.39-.336-.39-.334-14.604-12.536c-2.146-2.287-2.559-4.183-1.79-7.121l6.53-18.594.172-.487-.505-.094-18.959-3.563c-2.94-.728-4.426-2.378-5.058-5.213l-3.651-19.418-.093-.506-.483.169-18.19 6.39c-2.94.607-4.755.607-7.365-2.062L78.531.39 78.195 0l-.334.39-13.227 15.408c-1.702 1.843-3.353 2.669-6.025 1.608l-19.15-6.727-.484-.17-.095.505-3.75 19.95c-.332 2.271-.746 3.591-4.153 4.135l-19.419 3.65-.506.095.172.484 6.379 18.161c1.6 4.128.692 4.705-1.993 7.045L.638 77.385l-.389.335.389.334 14.594 12.529c1.908 1.81 2.815 3.543 1.792 7.155L10.5 116.307l-.17.484.504.095 18.906 3.554c3.406.666 4.479 2.48 5.124 5.288l3.637 19.354.096.506.485-.173 18.108-6.36c3.102-.788 5.082-.376 7.131 2.016L77.137 156l.336.391.335-.391 12.503-14.565c1.827-1.849 3.808-2.921 7.205-1.811l18.54 6.515.489.17.091-.506 3.553-18.895c.661-3.163 1.898-4.235 5.29-5.133l19.354-3.636.505-.098-.169-.484-6.371-18.132c-1.034-3.154-.703-4.969 1.998-7.086zm-62.6 39.601c-29.54 0-53.487-23.947-53.487-53.486 0-29.541 23.947-53.488 53.487-53.488.825 0 1.645.025 2.46.062 28.396 1.287 51.027 24.711 51.027 53.426.001 29.54-23.947 53.486-53.487 53.486z"/><path style="fill:#f2ab0c" d="M80.657 25.028v106.85c-.816.038-1.635.063-2.46.063 29.54 0 53.488-23.947 53.488-53.486-.001-28.716-22.632-52.14-51.028-53.427z"/><path style="fill:#f4940b" d="M80.657 25.028a54.245 54.245 0 0 0-2.46-.062c-29.54 0-53.487 23.947-53.487 53.488 0 29.54 23.947 53.486 53.487 53.486.825 0 1.645-.025 2.46-.063V25.028z"/></svg>