<svg xmlns="http://www.w3.org/2000/svg" width="468.698" height="468.698" style="enable-background:new 0 0 468.698 468.698" xml:space="preserve"><path d="M414.859 244.427c8.664-1.909 17.223-4.887 25.479-9.145 10.943-5.644 20.394-13.023 28.36-21.523-42.747 5.789-86.402-15.251-107.293-55.785-20.894-40.537-12.719-88.299 16.805-119.76-11.551 1.557-23.033 4.969-33.986 10.616-29.387 15.152-48.494 42.28-54.61 72.34-24.79-20.414-56.509-32.712-91.053-32.712-79.096 0-143.451 64.348-143.451 143.457 0 .47.005.936.015 1.406C21.393 251.525 0 286.933 0 325.592c0 57.84 47.046 104.893 104.885 104.893h243.647c57.828 0 104.888-47.053 104.888-104.893-.004-32.69-15.047-61.909-38.561-81.165zm-66.326 163.639H104.879c-45.471 0-82.471-37.002-82.471-82.475 0-32.459 19.193-62.002 48.89-75.275l7.095-3.171-.604-9.691c-.126-1.832-.267-3.668-.267-5.54 0-66.742 54.296-121.043 121.039-121.043 66.744 0 121.053 54.295 121.037 121.117-.032.52-.065 1.029-.074 1.547l-.126 13.687 13.442-2.577c5.309-1.023 10.594-1.526 15.699-1.526 45.478 0 82.474 36.996 82.474 82.474-.001 45.471-37.008 82.473-82.48 82.473z"/></svg>