<svg xmlns="http://www.w3.org/2000/svg" viewBox="0 0 107.95 88.341" version="1.0"><g stroke="#6798e9"><path stroke-linejoin="round" d="M68.88 3.07c-9.77 0-18.13 5.09-22.24 12.4-1.63-.91-3.46-1.47-5.39-1.47-5.83 0-10.68 4.69-12.18 11.06a23.771 23.771 0 0 0-8.7-1.64c-9.54 0-17.29 5.23-17.29 11.67 0 5.81 6.35 10.58 14.59 11.47-.37.63-.66 1.25-.66 1.91 0 6.16 16.89 11.17 37.7 11.17 20.8 0 37.69-5.01 37.69-11.17 0-.41-.27-.8-.42-1.2.91.22 1.83.46 2.83.46 5.56 0 10.07-3.78 10.07-8.44 0-4.65-4.51-8.41-10.07-8.41-.69 0-1.29.22-1.93.33.56-1.86.95-3.77.95-5.79 0-12.33-11.17-22.35-24.95-22.35z" stroke-linecap="round" stroke-miterlimit=".5" stroke-width="6.154" fill="#fff"/><path d="M32.17 76.88c-8.25 7.27 1.43 13.47 5.12 3.48l2.83-9.26-7.95 5.78zM53.04 77.65c-8.25 7.27 1.44 13.47 5.12 3.49l2.83-9.26-7.95 5.77z" stroke-width="4" stroke-miterlimit="3.2" fill="#6798e9"/></g></svg>