<svg xmlns="http://www.w3.org/2000/svg" viewBox="0 0 330 330" style="enable-background:new 0 0 330 330" xml:space="preserve"><path d="M115.01 210H15c-8.284 0-15 6.716-15 15s6.716 15 15 15h100.01c19.294 0 34.99 15.702 34.99 35.003C150 288.786 138.789 300 125.009 300c-9.369 0-16.991-7.626-16.991-16.999 0-8.284-6.716-15-15-15s-15 6.716-15 15c0 25.915 21.08 46.999 46.991 46.999C155.331 330 180 305.329 180 275.003 180 239.16 150.846 210 115.01 210zM252.778 0c-35.72 0-64.779 29.059-64.779 64.776 0 30.229 24.593 54.823 54.82 54.823 8.284 0 15-6.716 15-15s-6.716-15-15-15c-13.686 0-24.82-11.136-24.82-24.823C217.999 45.6 233.601 30 252.778 30 278.816 30 300 51.183 300 77.22c0 34.617-28.162 62.78-62.778 62.78H15c-8.284 0-15 6.716-15 15s6.716 15 15 15h222.222C288.38 170 330 128.379 330 77.22 330 34.641 295.358 0 252.778 0z"/></svg>